<svg xmlns="http://www.w3.org/2000/svg" xmlns:xlink="http://www.w3.org/1999/xlink" width="1080" zoomAndPan="magnify" viewBox="0 0 810 809.999993" height="1080" preserveAspectRatio="xMidYMid meet" version="1.0"><defs><g/><clipPath id="b8207db117"><path d="M 288.296875 195.996094 L 521.703125 195.996094 L 521.703125 429.402344 L 288.296875 429.402344 Z M 288.296875 195.996094 " clip-rule="nonzero"/></clipPath><clipPath id="683424513a"><path d="M 405 195.996094 C 340.546875 195.996094 288.296875 248.246094 288.296875 312.699219 C 288.296875 377.152344 340.546875 429.402344 405 429.402344 C 469.453125 429.402344 521.703125 377.152344 521.703125 312.699219 C 521.703125 248.246094 469.453125 195.996094 405 195.996094 Z M 405 195.996094 " clip-rule="nonzero"/></clipPath><clipPath id="86cb461e3e"><path d="M 0.296875 0.996094 L 233.703125 0.996094 L 233.703125 234.402344 L 0.296875 234.402344 Z M 0.296875 0.996094 " clip-rule="nonzero"/></clipPath><clipPath id="1e7a2feb85"><path d="M 117 0.996094 C 52.546875 0.996094 0.296875 53.246094 0.296875 117.699219 C 0.296875 182.152344 52.546875 234.402344 117 234.402344 C 181.453125 234.402344 233.703125 182.152344 233.703125 117.699219 C 233.703125 53.246094 181.453125 0.996094 117 0.996094 Z M 117 0.996094 " clip-rule="nonzero"/></clipPath><clipPath id="967db9355e"><rect x="0" width="234" y="0" height="235"/></clipPath><clipPath id="49f676b87c"><path d="M 278 180 L 533 180 L 533 434 L 278 434 Z M 278 180 " clip-rule="nonzero"/></clipPath><clipPath id="6059872f98"><path d="M 584.210938 306.445312 L 404.957031 485.695312 L 225.707031 306.445312 L 404.957031 127.195312 Z M 584.210938 306.445312 " clip-rule="nonzero"/></clipPath><clipPath id="8535ca1737"><path d="M 584.210938 306.445312 L 404.957031 485.695312 L 225.707031 306.445312 L 404.957031 127.195312 Z M 584.210938 306.445312 " clip-rule="nonzero"/></clipPath><clipPath id="ae23f2092a"><path d="M 287 187 L 529 187 L 529 429 L 287 429 Z M 287 187 " clip-rule="nonzero"/></clipPath><clipPath id="5625230be1"><path d="M 577.972656 307.582031 L 407.738281 477.816406 L 237.503906 307.582031 L 407.738281 137.34375 Z M 577.972656 307.582031 " clip-rule="nonzero"/></clipPath><clipPath id="2423420570"><path d="M 577.972656 307.582031 L 407.738281 477.816406 L 237.503906 307.582031 L 407.738281 137.34375 Z M 577.972656 307.582031 " clip-rule="nonzero"/></clipPath><clipPath id="8e61e1a769"><path d="M 315.957031 185.925781 L 380.625 185.925781 L 380.625 247.464844 L 315.957031 247.464844 Z M 315.957031 185.925781 " clip-rule="nonzero"/></clipPath><clipPath id="6b76756eee"><path d="M 349.71875 185.925781 C 366.714844 185.925781 380.488281 199.699219 380.488281 216.695312 C 380.488281 233.6875 366.714844 247.464844 349.71875 247.464844 L 346.726562 247.464844 C 329.734375 247.464844 315.957031 233.6875 315.957031 216.695312 C 315.957031 199.699219 329.734375 185.925781 346.726562 185.925781 Z M 349.71875 185.925781 " clip-rule="nonzero"/></clipPath><clipPath id="288e5e6c23"><path d="M 0.957031 0.925781 L 65.625 0.925781 L 65.625 62.464844 L 0.957031 62.464844 Z M 0.957031 0.925781 " clip-rule="nonzero"/></clipPath><clipPath id="622b30dcd4"><path d="M 34.71875 0.925781 C 51.714844 0.925781 65.488281 14.699219 65.488281 31.695312 C 65.488281 48.6875 51.714844 62.464844 34.71875 62.464844 L 31.726562 62.464844 C 14.734375 62.464844 0.957031 48.6875 0.957031 31.695312 C 0.957031 14.699219 14.734375 0.925781 31.726562 0.925781 Z M 34.71875 0.925781 " clip-rule="nonzero"/></clipPath><clipPath id="3616bcc955"><rect x="0" width="66" y="0" height="63"/></clipPath><clipPath id="150a0ac069"><path d="M 329 284 L 404 284 L 404 337 L 329 337 Z M 329 284 " clip-rule="nonzero"/></clipPath><clipPath id="c9ee05c3cd"><path d="M 391.859375 273.3125 L 403.425781 336.003906 L 341.472656 347.433594 L 329.90625 284.742188 Z M 391.859375 273.3125 " clip-rule="nonzero"/></clipPath><clipPath id="a6c35d49a1"><path d="M 391.859375 273.3125 L 403.425781 336.003906 L 341.472656 347.433594 L 329.90625 284.742188 Z M 391.859375 273.3125 " clip-rule="nonzero"/></clipPath><clipPath id="1717841409"><path d="M 329 321 L 404 321 L 404 374 L 329 374 Z M 329 321 " clip-rule="nonzero"/></clipPath><clipPath id="d40a6dd285"><path d="M 391.859375 310.46875 L 403.425781 373.160156 L 341.472656 384.59375 L 329.90625 321.902344 Z M 391.859375 310.46875 " clip-rule="nonzero"/></clipPath><clipPath id="33e0cb89fd"><path d="M 391.859375 310.46875 L 403.425781 373.160156 L 341.472656 384.59375 L 329.90625 321.902344 Z M 391.859375 310.46875 " clip-rule="nonzero"/></clipPath><clipPath id="3a4825765e"><path d="M 345 360 L 403 360 L 403 401 L 345 401 Z M 345 360 " clip-rule="nonzero"/></clipPath><clipPath id="d503b3a216"><path d="M 393.261719 352.121094 L 402.105469 400.0625 L 354.164062 408.90625 L 345.320312 360.964844 Z M 393.261719 352.121094 " clip-rule="nonzero"/></clipPath><clipPath id="6a47793fa4"><path d="M 393.261719 352.121094 L 402.105469 400.0625 L 354.164062 408.90625 L 345.320312 360.964844 Z M 393.261719 352.121094 " clip-rule="nonzero"/></clipPath><clipPath id="c7740314cf"><path d="M 410 273 L 478 273 L 478 342 L 410 342 Z M 410 273 " clip-rule="nonzero"/></clipPath><clipPath id="5945516936"><path d="M 410.15625 337.015625 L 415.039062 273.453125 L 477.855469 278.277344 L 472.972656 341.839844 Z M 410.15625 337.015625 " clip-rule="nonzero"/></clipPath><clipPath id="07575c6932"><path d="M 0.160156 5 L 68 5 L 68 65 L 0.160156 65 Z M 0.160156 5 " clip-rule="nonzero"/></clipPath><clipPath id="0f977407e1"><path d="M 0.15625 64.015625 L 5.039062 0.453125 L 67.855469 5.277344 L 62.972656 68.839844 Z M 0.15625 64.015625 " clip-rule="nonzero"/></clipPath><clipPath id="1d2d3e748a"><path d="M 5.050781 0.3125 L 0.167969 63.875 L 62.984375 68.699219 L 67.863281 5.136719 Z M 5.050781 0.3125 " clip-rule="nonzero"/></clipPath><clipPath id="0b7e27e211"><rect x="0" width="68" y="0" height="69"/></clipPath><clipPath id="73daaa7002"><path d="M 410 310 L 478 310 L 478 379 L 410 379 Z M 410 310 " clip-rule="nonzero"/></clipPath><clipPath id="354ecbf700"><path d="M 410.15625 374.171875 L 415.039062 310.609375 L 477.855469 315.433594 L 472.972656 378.996094 Z M 410.15625 374.171875 " clip-rule="nonzero"/></clipPath><clipPath id="8dfd194605"><path d="M 0.160156 5 L 68 5 L 68 65 L 0.160156 65 Z M 0.160156 5 " clip-rule="nonzero"/></clipPath><clipPath id="4f7e87250a"><path d="M 0.15625 64.171875 L 5.039062 0.609375 L 67.855469 5.433594 L 62.972656 68.996094 Z M 0.15625 64.171875 " clip-rule="nonzero"/></clipPath><clipPath id="21e835e5ed"><path d="M 5.050781 0.46875 L 0.167969 64.03125 L 62.984375 68.859375 L 67.863281 5.292969 Z M 5.050781 0.46875 " clip-rule="nonzero"/></clipPath><clipPath id="608c55414e"><rect x="0" width="68" y="0" height="69"/></clipPath><clipPath id="65e529d277"><path d="M 371.929688 238.996094 L 416.179688 238.996094 L 416.179688 302.746094 L 371.929688 302.746094 Z M 371.929688 238.996094 " clip-rule="nonzero"/></clipPath><clipPath id="53f683cd80"><path d="M 439 250 L 454 250 L 454 281 L 439 281 Z M 439 250 " clip-rule="nonzero"/></clipPath><clipPath id="2fce835cd0"><path d="M 438.105469 278.691406 L 446.902344 249.40625 L 454.625 251.726562 L 445.828125 281.011719 Z M 438.105469 278.691406 " clip-rule="nonzero"/></clipPath><clipPath id="48c1ad146d"><path d="M 439.265625 274.832031 L 445.742188 253.273438 C 446.382812 251.140625 448.628906 249.933594 450.761719 250.574219 C 452.894531 251.214844 454.101562 253.460938 453.460938 255.59375 L 446.988281 277.148438 C 446.347656 279.28125 444.097656 280.492188 441.964844 279.851562 C 439.835938 279.210938 438.625 276.960938 439.265625 274.832031 Z M 439.265625 274.832031 " clip-rule="nonzero"/></clipPath><clipPath id="6b07b769c4"><path d="M 0 0 L 15 0 L 15 30.558594 L 0 30.558594 Z M 0 0 " clip-rule="nonzero"/></clipPath><clipPath id="aeff0a4dbe"><path d="M -0.894531 28.691406 L 7.902344 -0.59375 L 15.625 1.726562 L 6.828125 31.011719 Z M -0.894531 28.691406 " clip-rule="nonzero"/></clipPath><clipPath id="be002b7ce2"><path d="M 0.265625 24.832031 L 6.742188 3.273438 C 7.382812 1.140625 9.628906 -0.0664062 11.761719 0.574219 C 13.894531 1.214844 15.101562 3.460938 14.460938 5.59375 L 7.988281 27.148438 C 7.347656 29.28125 5.097656 30.492188 2.964844 29.851562 C 0.835938 29.210938 -0.375 26.960938 0.265625 24.832031 Z M 0.265625 24.832031 " clip-rule="nonzero"/></clipPath><clipPath id="8e7c96708a"><rect x="0" width="15" y="0" height="31"/></clipPath><clipPath id="d5393e4318"><path d="M 436.886719 235.023438 L 465.683594 235.023438 L 465.683594 263.820312 L 436.886719 263.820312 Z M 436.886719 235.023438 " clip-rule="nonzero"/></clipPath><clipPath id="03314a5310"><path d="M 451.285156 235.023438 C 443.332031 235.023438 436.886719 241.46875 436.886719 249.421875 C 436.886719 257.375 443.332031 263.820312 451.285156 263.820312 C 459.238281 263.820312 465.683594 257.375 465.683594 249.421875 C 465.683594 241.46875 459.238281 235.023438 451.285156 235.023438 Z M 451.285156 235.023438 " clip-rule="nonzero"/></clipPath><clipPath id="7978111171"><path d="M 0.886719 0.0234375 L 29.683594 0.0234375 L 29.683594 28.820312 L 0.886719 28.820312 Z M 0.886719 0.0234375 " clip-rule="nonzero"/></clipPath><clipPath id="8f9cd9325d"><path d="M 15.285156 0.0234375 C 7.332031 0.0234375 0.886719 6.46875 0.886719 14.421875 C 0.886719 22.375 7.332031 28.820312 15.285156 28.820312 C 23.238281 28.820312 29.683594 22.375 29.683594 14.421875 C 29.683594 6.46875 23.238281 0.0234375 15.285156 0.0234375 Z M 15.285156 0.0234375 " clip-rule="nonzero"/></clipPath><clipPath id="2f6d5ac6de"><rect x="0" width="30" y="0" height="29"/></clipPath><clipPath id="83b7fb32b9"><path d="M 441.496094 239.632812 L 461.074219 239.632812 L 461.074219 259.207031 L 441.496094 259.207031 Z M 441.496094 239.632812 " clip-rule="nonzero"/></clipPath><clipPath id="1481680126"><path d="M 451.285156 239.632812 C 445.878906 239.632812 441.496094 244.015625 441.496094 249.421875 C 441.496094 254.828125 445.878906 259.207031 451.285156 259.207031 C 456.691406 259.207031 461.074219 254.828125 461.074219 249.421875 C 461.074219 244.015625 456.691406 239.632812 451.285156 239.632812 Z M 451.285156 239.632812 " clip-rule="nonzero"/></clipPath><clipPath id="76f92a1c16"><path d="M 0.496094 0.632812 L 20.074219 0.632812 L 20.074219 20.207031 L 0.496094 20.207031 Z M 0.496094 0.632812 " clip-rule="nonzero"/></clipPath><clipPath id="50087d9788"><path d="M 10.285156 0.632812 C 4.878906 0.632812 0.496094 5.015625 0.496094 10.421875 C 0.496094 15.828125 4.878906 20.207031 10.285156 20.207031 C 15.691406 20.207031 20.074219 15.828125 20.074219 10.421875 C 20.074219 5.015625 15.691406 0.632812 10.285156 0.632812 Z M 10.285156 0.632812 " clip-rule="nonzero"/></clipPath><clipPath id="1e107f0e23"><rect x="0" width="21" y="0" height="21"/></clipPath><clipPath id="2b18355508"><path d="M 329.652344 195.996094 L 356.792969 195.996094 L 356.792969 223.136719 L 329.652344 223.136719 Z M 329.652344 195.996094 " clip-rule="nonzero"/></clipPath><clipPath id="368ff080d9"><path d="M 343.222656 195.996094 C 335.730469 195.996094 329.652344 202.070312 329.652344 209.566406 C 329.652344 217.0625 335.730469 223.136719 343.222656 223.136719 C 350.71875 223.136719 356.792969 217.0625 356.792969 209.566406 C 356.792969 202.070312 350.71875 195.996094 343.222656 195.996094 Z M 343.222656 195.996094 " clip-rule="nonzero"/></clipPath><clipPath id="c87d32007e"><path d="M 0.652344 0.996094 L 27.792969 0.996094 L 27.792969 28.136719 L 0.652344 28.136719 Z M 0.652344 0.996094 " clip-rule="nonzero"/></clipPath><clipPath id="911c1bcf55"><path d="M 14.222656 0.996094 C 6.730469 0.996094 0.652344 7.070312 0.652344 14.566406 C 0.652344 22.0625 6.730469 28.136719 14.222656 28.136719 C 21.71875 28.136719 27.792969 22.0625 27.792969 14.566406 C 27.792969 7.070312 21.71875 0.996094 14.222656 0.996094 Z M 14.222656 0.996094 " clip-rule="nonzero"/></clipPath><clipPath id="babbe92ec3"><rect x="0" width="28" y="0" height="29"/></clipPath><clipPath id="2648ed2d4b"><path d="M 399.257812 302.464844 L 407.644531 302.464844 L 407.644531 406.417969 L 399.257812 406.417969 Z M 399.257812 302.464844 " clip-rule="nonzero"/></clipPath><clipPath id="abeee08788"><path d="M 0.257812 0.464844 L 8.644531 0.464844 L 8.644531 104.417969 L 0.257812 104.417969 Z M 0.257812 0.464844 " clip-rule="nonzero"/></clipPath><clipPath id="a70ad73ef7"><rect x="0" width="9" y="0" height="105"/></clipPath><clipPath id="6f673138ae"><path d="M 246 147 L 565 147 L 565 467 L 246 467 Z M 246 147 " clip-rule="nonzero"/></clipPath><clipPath id="59b3c077f6"><path d="M 630.4375 306.441406 L 405.046875 531.832031 L 179.65625 306.441406 L 405.046875 81.050781 Z M 630.4375 306.441406 " clip-rule="nonzero"/></clipPath><clipPath id="17f51c5d48"><path d="M 630.4375 306.441406 L 405.046875 531.832031 L 179.65625 306.441406 L 405.046875 81.050781 Z M 630.4375 306.441406 " clip-rule="nonzero"/></clipPath><clipPath id="8ad668810e"><path d="M 303 147 L 565 147 L 565 408 L 303 408 Z M 303 147 " clip-rule="nonzero"/></clipPath><clipPath id="852d002742"><path d="M 630.433594 306.441406 L 529.140625 407.734375 L 303.75 182.34375 L 405.042969 81.050781 Z M 630.433594 306.441406 " clip-rule="nonzero"/></clipPath><clipPath id="396c26bb05"><path d="M 630.433594 306.441406 L 405.042969 531.832031 L 179.652344 306.441406 L 405.042969 81.050781 Z M 630.433594 306.441406 " clip-rule="nonzero"/></clipPath><clipPath id="75eb011058"><path d="M 461.074219 355.921875 L 517 355.921875 L 517 409.167969 L 461.074219 409.167969 Z M 461.074219 355.921875 " clip-rule="nonzero"/></clipPath><clipPath id="9abb42862b"><path d="M 490.285156 355.921875 C 504.988281 355.921875 516.90625 367.839844 516.90625 382.542969 C 516.90625 397.246094 504.988281 409.167969 490.285156 409.167969 L 487.695312 409.167969 C 472.992188 409.167969 461.074219 397.246094 461.074219 382.542969 C 461.074219 367.839844 472.992188 355.921875 487.695312 355.921875 Z M 490.285156 355.921875 " clip-rule="nonzero"/></clipPath><clipPath id="802279bf38"><path d="M 0.0742188 0.921875 L 55.960938 0.921875 L 55.960938 54.167969 L 0.0742188 54.167969 Z M 0.0742188 0.921875 " clip-rule="nonzero"/></clipPath><clipPath id="6e6c929338"><path d="M 29.285156 0.921875 C 43.988281 0.921875 55.90625 12.839844 55.90625 27.542969 C 55.90625 42.246094 43.988281 54.167969 29.285156 54.167969 L 26.695312 54.167969 C 11.992188 54.167969 0.0742188 42.246094 0.0742188 27.542969 C 0.0742188 12.839844 11.992188 0.921875 26.695312 0.921875 Z M 29.285156 0.921875 " clip-rule="nonzero"/></clipPath><clipPath id="45b3347b64"><rect x="0" width="56" y="0" height="55"/></clipPath><clipPath id="94dca29c44"><path d="M 482.78125 382.542969 L 531.140625 382.542969 L 531.140625 428.566406 L 482.78125 428.566406 Z M 482.78125 382.542969 " clip-rule="nonzero"/></clipPath><clipPath id="320648d128"><path d="M 508.027344 382.542969 C 520.738281 382.542969 531.039062 392.847656 531.039062 405.554688 C 531.039062 418.261719 520.738281 428.566406 508.027344 428.566406 L 505.789062 428.566406 C 493.082031 428.566406 482.78125 418.261719 482.78125 405.554688 C 482.78125 392.847656 493.082031 382.542969 505.789062 382.542969 Z M 508.027344 382.542969 " clip-rule="nonzero"/></clipPath><clipPath id="ca320b8559"><path d="M 0.78125 0.542969 L 49 0.542969 L 49 46.566406 L 0.78125 46.566406 Z M 0.78125 0.542969 " clip-rule="nonzero"/></clipPath><clipPath id="6ba802655e"><path d="M 26.027344 0.542969 C 38.738281 0.542969 49.039062 10.847656 49.039062 23.554688 C 49.039062 36.261719 38.738281 46.566406 26.027344 46.566406 L 23.789062 46.566406 C 11.082031 46.566406 0.78125 36.261719 0.78125 23.554688 C 0.78125 10.847656 11.082031 0.542969 23.789062 0.542969 Z M 26.027344 0.542969 " clip-rule="nonzero"/></clipPath><clipPath id="fcb971cb20"><rect x="0" width="50" y="0" height="47"/></clipPath></defs><g clip-path="url(#b8207db117)"><g clip-path="url(#683424513a)"><g transform="matrix(1, 0, 0, 1, 288, 195)"><g clip-path="url(#967db9355e)"><g clip-path="url(#86cb461e3e)"><g clip-path="url(#1e7a2feb85)"><path fill="#004aad" d="M 0.296875 0.996094 L 233.703125 0.996094 L 233.703125 234.402344 L 0.296875 234.402344 Z M 0.296875 0.996094 " fill-opacity="1" fill-rule="nonzero"/></g></g></g></g></g></g><g clip-path="url(#49f676b87c)"><g clip-path="url(#6059872f98)"><g clip-path="url(#8535ca1737)"><path fill="#ffffff" d="M 482.519531 407.339844 L 474.578125 399.402344 C 429.300781 433.277344 364.707031 429.78125 323.574219 388.648438 C 278.460938 343.535156 278.464844 270.132812 323.574219 225.019531 C 368.683594 179.910156 442.085938 179.90625 487.203125 225.019531 C 528.335938 266.152344 531.832031 330.746094 497.953125 376.027344 L 505.894531 383.964844 C 544.050781 334.316406 540.4375 262.675781 494.992188 217.230469 C 445.585938 167.820312 365.195312 167.816406 315.785156 217.230469 C 266.371094 266.640625 266.375 347.03125 315.785156 396.441406 C 361.230469 441.886719 432.871094 445.496094 482.519531 407.339844 Z M 482.519531 407.339844 " fill-opacity="1" fill-rule="nonzero"/></g></g></g><g clip-path="url(#ae23f2092a)"><g clip-path="url(#5625230be1)"><g clip-path="url(#2423420570)"><path fill="#ffffff" d="M 481.324219 403.476562 L 473.777344 395.929688 C 430.746094 428.128906 369.351562 424.804688 330.257812 385.710938 C 287.382812 342.832031 287.386719 273.066406 330.257812 230.195312 C 373.132812 187.320312 442.898438 187.316406 485.777344 230.195312 C 524.871094 269.289062 528.195312 330.679688 495.996094 373.710938 L 503.542969 381.257812 C 539.804688 334.070312 536.375 265.980469 493.179688 222.789062 C 446.222656 175.828125 369.816406 175.824219 322.855469 222.789062 C 275.890625 269.75 275.894531 346.15625 322.855469 393.113281 C 366.046875 436.308594 434.136719 439.742188 481.324219 403.476562 Z M 481.324219 403.476562 " fill-opacity="1" fill-rule="nonzero"/></g></g></g><g clip-path="url(#8e61e1a769)"><g clip-path="url(#6b76756eee)"><g transform="matrix(1, 0, 0, 1, 315, 185)"><g clip-path="url(#3616bcc955)"><g clip-path="url(#288e5e6c23)"><g clip-path="url(#622b30dcd4)"><path fill="#022437" d="M 0.957031 0.925781 L 65.382812 0.925781 L 65.382812 62.464844 L 0.957031 62.464844 Z M 0.957031 0.925781 " fill-opacity="1" fill-rule="nonzero"/></g></g></g></g></g></g><g clip-path="url(#150a0ac069)"><g clip-path="url(#c9ee05c3cd)"><g clip-path="url(#a6c35d49a1)"><path fill="#ffffff" d="M 333.632812 306.113281 L 329.695312 284.78125 L 399.46875 314.824219 L 403.402344 336.15625 Z M 333.632812 306.113281 " fill-opacity="1" fill-rule="nonzero"/></g></g></g><g clip-path="url(#1717841409)"><g clip-path="url(#d40a6dd285)"><g clip-path="url(#33e0cb89fd)"><path fill="#ffffff" d="M 333.632812 343.273438 L 329.695312 321.941406 L 399.46875 351.984375 L 403.402344 373.316406 Z M 333.632812 343.273438 " fill-opacity="1" fill-rule="nonzero"/></g></g></g><g clip-path="url(#3a4825765e)"><g clip-path="url(#d503b3a216)"><g clip-path="url(#6a47793fa4)"><path fill="#ffffff" d="M 348.5625 377.300781 L 345.539062 360.925781 L 399.097656 383.988281 L 402.121094 400.363281 Z M 348.5625 377.300781 " fill-opacity="1" fill-rule="nonzero"/></g></g></g><g clip-path="url(#c7740314cf)"><g clip-path="url(#5945516936)"><g transform="matrix(1, 0, 0, 1, 410, 273)"><g clip-path="url(#0b7e27e211)"><g clip-path="url(#07575c6932)"><g clip-path="url(#0f977407e1)"><g clip-path="url(#1d2d3e748a)"><path fill="#ffffff" d="M 66.417969 26.78125 L 68.078125 5.152344 L 1.867188 42.394531 L 0.207031 64.023438 Z M 66.417969 26.78125 " fill-opacity="1" fill-rule="nonzero"/></g></g></g></g></g></g></g><g clip-path="url(#73daaa7002)"><g clip-path="url(#354ecbf700)"><g transform="matrix(1, 0, 0, 1, 410, 310)"><g clip-path="url(#608c55414e)"><g clip-path="url(#8dfd194605)"><g clip-path="url(#4f7e87250a)"><g clip-path="url(#21e835e5ed)"><path fill="#ffffff" d="M 66.417969 26.941406 L 68.078125 5.3125 L 1.867188 42.554688 L 0.207031 64.183594 Z M 66.417969 26.941406 " fill-opacity="1" fill-rule="nonzero"/></g></g></g></g></g></g></g><g clip-path="url(#65e529d277)"><path fill="#ffffff" d="M 394.144531 238.996094 C 381.878906 238.996094 371.933594 248.945312 371.933594 261.207031 C 371.933594 277.863281 394.144531 302.453125 394.144531 302.453125 C 394.144531 302.453125 416.351562 277.863281 416.351562 261.207031 C 416.351562 248.945312 406.40625 238.996094 394.144531 238.996094 Z M 394.144531 269.140625 C 389.765625 269.140625 386.210938 265.585938 386.210938 261.207031 C 386.210938 256.828125 389.765625 253.273438 394.144531 253.273438 C 398.519531 253.273438 402.074219 256.828125 402.074219 261.207031 C 402.074219 265.585938 398.519531 269.140625 394.144531 269.140625 Z M 394.144531 269.140625 " fill-opacity="1" fill-rule="nonzero"/></g><g clip-path="url(#53f683cd80)"><g clip-path="url(#2fce835cd0)"><g clip-path="url(#48c1ad146d)"><g transform="matrix(1, 0, 0, 1, 439, 250)"><g clip-path="url(#8e7c96708a)"><g clip-path="url(#6b07b769c4)"><g clip-path="url(#aeff0a4dbe)"><g clip-path="url(#be002b7ce2)"><path fill="#ffffff" d="M -0.894531 28.691406 L 7.902344 -0.59375 L 15.625 1.726562 L 6.828125 31.011719 Z M -0.894531 28.691406 " fill-opacity="1" fill-rule="nonzero"/></g></g></g></g></g></g></g></g><g clip-path="url(#d5393e4318)"><g clip-path="url(#03314a5310)"><g transform="matrix(1, 0, 0, 1, 436, 235)"><g clip-path="url(#2f6d5ac6de)"><g clip-path="url(#7978111171)"><g clip-path="url(#8f9cd9325d)"><path fill="#ffffff" d="M 0.886719 0.0234375 L 29.683594 0.0234375 L 29.683594 28.820312 L 0.886719 28.820312 Z M 0.886719 0.0234375 " fill-opacity="1" fill-rule="nonzero"/></g></g></g></g></g></g><g clip-path="url(#83b7fb32b9)"><g clip-path="url(#1481680126)"><g transform="matrix(1, 0, 0, 1, 441, 239)"><g clip-path="url(#1e107f0e23)"><g clip-path="url(#76f92a1c16)"><g clip-path="url(#50087d9788)"><path fill="#ffffff" d="M 0.496094 0.632812 L 20.074219 0.632812 L 20.074219 20.207031 L 0.496094 20.207031 Z M 0.496094 0.632812 " fill-opacity="1" fill-rule="nonzero"/></g></g></g></g></g></g><g clip-path="url(#2b18355508)"><g clip-path="url(#368ff080d9)"><g transform="matrix(1, 0, 0, 1, 329, 195)"><g clip-path="url(#babbe92ec3)"><g clip-path="url(#c87d32007e)"><g clip-path="url(#911c1bcf55)"><path fill="#ffffff" d="M 0.652344 0.996094 L 27.792969 0.996094 L 27.792969 28.136719 L 0.652344 28.136719 Z M 0.652344 0.996094 " fill-opacity="1" fill-rule="nonzero"/></g></g></g></g></g></g><g clip-path="url(#2648ed2d4b)"><g transform="matrix(1, 0, 0, 1, 399, 302)"><g clip-path="url(#a70ad73ef7)"><g clip-path="url(#abeee08788)"><path fill="#004aad" d="M 8.644531 0.464844 L 8.644531 104.429688 L 0.257812 104.429688 L 0.257812 0.464844 Z M 8.644531 0.464844 " fill-opacity="1" fill-rule="nonzero"/></g></g></g></g><g clip-path="url(#6f673138ae)"><g clip-path="url(#59b3c077f6)"><g clip-path="url(#17f51c5d48)"><path fill="#ffffff" d="M 502.511719 433.363281 L 492.523438 423.375 C 435.566406 465.996094 354.3125 461.59375 302.566406 409.851562 C 245.816406 353.097656 245.820312 260.761719 302.566406 204.011719 C 359.316406 147.265625 451.652344 147.261719 508.402344 204.011719 C 560.148438 255.757812 564.546875 337.011719 521.929688 393.972656 L 531.917969 403.960938 C 579.917969 341.503906 575.375 251.378906 518.207031 194.210938 C 456.054688 132.058594 354.921875 132.054688 292.765625 194.210938 C 230.609375 256.371094 230.613281 357.5 292.765625 419.652344 C 349.933594 476.820312 440.054688 481.363281 502.511719 433.363281 Z M 502.511719 433.363281 " fill-opacity="1" fill-rule="nonzero"/></g></g></g><g clip-path="url(#8ad668810e)"><g clip-path="url(#852d002742)"><g clip-path="url(#396c26bb05)"><path fill="#ffffff" d="M 502.511719 433.363281 L 492.523438 423.378906 C 435.566406 465.996094 354.308594 461.59375 302.566406 409.851562 C 245.8125 353.097656 245.820312 260.761719 302.566406 204.015625 C 359.3125 147.265625 451.652344 147.261719 508.402344 204.015625 C 560.144531 255.757812 564.546875 337.015625 521.929688 393.972656 L 531.917969 403.960938 C 579.917969 341.503906 575.375 251.382812 518.203125 194.210938 C 456.050781 132.058594 354.921875 132.054688 292.765625 194.210938 C 230.605469 256.371094 230.613281 357.5 292.765625 419.652344 C 349.933594 476.820312 440.054688 481.363281 502.511719 433.363281 Z M 502.511719 433.363281 " fill-opacity="1" fill-rule="nonzero"/></g></g></g><g clip-path="url(#75eb011058)"><g clip-path="url(#9abb42862b)"><g transform="matrix(1, 0, 0, 1, 461, 355)"><g clip-path="url(#45b3347b64)"><g clip-path="url(#802279bf38)"><g clip-path="url(#6e6c929338)"><path fill="#022437" d="M 0.0742188 0.921875 L 55.816406 0.921875 L 55.816406 54.167969 L 0.0742188 54.167969 Z M 0.0742188 0.921875 " fill-opacity="1" fill-rule="nonzero"/></g></g></g></g></g></g><g clip-path="url(#94dca29c44)"><g clip-path="url(#320648d128)"><g transform="matrix(1, 0, 0, 1, 482, 382)"><g clip-path="url(#fcb971cb20)"><g clip-path="url(#ca320b8559)"><g clip-path="url(#6ba802655e)"><path fill="#022437" d="M 0.78125 0.542969 L 48.960938 0.542969 L 48.960938 46.566406 L 0.78125 46.566406 Z M 0.78125 0.542969 " fill-opacity="1" fill-rule="nonzero"/></g></g></g></g></g></g><g fill="#ffffff" fill-opacity="1"><g transform="translate(105.667967, 632.71818)"><g><path d="M 55.953125 -105.59375 C 66.453125 -105.59375 75.347656 -103.289062 82.640625 -98.6875 C 89.941406 -94.09375 95.46875 -87.769531 99.21875 -79.71875 C 102.96875 -71.675781 104.84375 -62.351562 104.84375 -51.75 C 104.84375 -41.25 102.96875 -31.945312 99.21875 -23.84375 C 95.46875 -15.75 89.941406 -9.398438 82.640625 -4.796875 C 75.347656 -0.203125 66.453125 2.09375 55.953125 2.09375 C 45.453125 2.09375 36.578125 -0.203125 29.328125 -4.796875 C 22.078125 -9.398438 16.550781 -15.75 12.75 -23.84375 C 8.945312 -31.945312 7.046875 -41.25 7.046875 -51.75 C 7.046875 -62.351562 8.945312 -71.675781 12.75 -79.71875 C 16.550781 -87.769531 22.078125 -94.09375 29.328125 -98.6875 C 36.578125 -103.289062 45.453125 -105.59375 55.953125 -105.59375 Z M 55.953125 -8.09375 C 66.847656 -8.09375 75.320312 -12.019531 81.375 -19.875 C 87.425781 -27.726562 90.453125 -38.351562 90.453125 -51.75 C 90.453125 -65.25 87.425781 -75.898438 81.375 -83.703125 C 75.320312 -91.503906 66.847656 -95.40625 55.953125 -95.40625 C 45.046875 -95.40625 36.566406 -91.503906 30.515625 -83.703125 C 24.472656 -75.898438 21.453125 -65.25 21.453125 -51.75 C 21.453125 -38.351562 24.472656 -27.726562 30.515625 -19.875 C 36.566406 -12.019531 45.046875 -8.09375 55.953125 -8.09375 Z M 55.953125 -8.09375 "/></g></g></g><g fill="#ffffff" fill-opacity="1"><g transform="translate(216.217991, 632.71818)"><g><path d="M 51 -81.59375 C 58.800781 -81.59375 65.375 -79.816406 70.71875 -76.265625 C 76.070312 -72.722656 80.148438 -67.898438 82.953125 -61.796875 C 85.753906 -55.703125 87.15625 -48.753906 87.15625 -40.953125 C 87.15625 -31.148438 85.351562 -23.070312 81.75 -16.71875 C 78.144531 -10.375 73.394531 -5.648438 67.5 -2.546875 C 61.601562 0.546875 55.203125 2.09375 48.296875 2.09375 C 44.992188 2.09375 41.492188 1.617188 37.796875 0.671875 C 34.097656 -0.273438 31.25 -1.550781 29.25 -3.15625 L 24 -10.953125 L 24 29.40625 L 11.09375 29.40625 L 11.09375 -79.5 L 24 -79.5 L 24 -66.75 L 30 -75.296875 C 32.300781 -77.203125 35.375 -78.726562 39.21875 -79.875 C 43.070312 -81.019531 47 -81.59375 51 -81.59375 Z M 48.296875 -7.796875 C 55.296875 -7.796875 61.171875 -10.46875 65.921875 -15.8125 C 70.671875 -21.164062 73.046875 -29.046875 73.046875 -39.453125 C 73.046875 -45.453125 72.144531 -50.898438 70.34375 -55.796875 C 68.550781 -60.703125 65.878906 -64.578125 62.328125 -67.421875 C 58.773438 -70.273438 54.347656 -71.703125 49.046875 -71.703125 C 44.648438 -71.703125 40.550781 -70.675781 36.75 -68.625 C 32.945312 -66.570312 29.867188 -63.269531 27.515625 -58.71875 C 25.171875 -54.175781 24 -48.101562 24 -40.5 L 24 -36.15625 C 24 -29.351562 25.222656 -23.847656 27.671875 -19.640625 C 30.117188 -15.441406 33.21875 -12.414062 36.96875 -10.5625 C 40.71875 -8.71875 44.492188 -7.796875 48.296875 -7.796875 Z M 48.296875 -7.796875 "/></g></g></g><g fill="#ffffff" fill-opacity="1"><g transform="translate(307.868007, 632.71818)"><g><path d="M 76.34375 -42 C 76.34375 -41.394531 76.34375 -40.566406 76.34375 -39.515625 C 76.34375 -38.472656 76.242188 -37.25 76.046875 -35.84375 L 18.453125 -35.84375 C 18.847656 -28.84375 20.117188 -23.289062 22.265625 -19.1875 C 24.421875 -15.09375 27.148438 -12.171875 30.453125 -10.421875 C 33.753906 -8.671875 37.351562 -7.796875 41.25 -7.796875 C 46.445312 -7.796875 50.945312 -9.34375 54.75 -12.4375 C 58.550781 -15.539062 60.898438 -19.945312 61.796875 -25.65625 L 75.296875 -25.65625 C 74.296875 -19.25 72.070312 -13.992188 68.625 -9.890625 C 65.175781 -5.796875 61.023438 -2.773438 56.171875 -0.828125 C 51.328125 1.117188 46.15625 2.09375 40.65625 2.09375 C 33.75 2.09375 27.570312 0.570312 22.125 -2.46875 C 16.675781 -5.519531 12.375 -10.117188 9.21875 -16.265625 C 6.070312 -22.421875 4.5 -30.148438 4.5 -39.453125 C 4.5 -48.046875 6.148438 -55.492188 9.453125 -61.796875 C 12.753906 -68.097656 17.253906 -72.972656 22.953125 -76.421875 C 28.648438 -79.867188 35.097656 -81.59375 42.296875 -81.59375 C 49.597656 -81.59375 55.773438 -79.914062 60.828125 -76.5625 C 65.878906 -73.21875 69.726562 -68.570312 72.375 -62.625 C 75.019531 -56.675781 76.34375 -49.800781 76.34375 -42 Z M 42 -71.703125 C 35.695312 -71.703125 30.421875 -69.5 26.171875 -65.09375 C 21.921875 -60.695312 19.394531 -54.25 18.59375 -45.75 L 63.296875 -45.75 C 62.703125 -54.050781 60.628906 -60.453125 57.078125 -64.953125 C 53.523438 -69.453125 48.5 -71.703125 42 -71.703125 Z M 42 -71.703125 "/></g></g></g><g fill="#ffffff" fill-opacity="1"><g transform="translate(390.218016, 632.71818)"><g><path d="M 78 -58.34375 C 78.195312 -56.34375 78.296875 -54.367188 78.296875 -52.421875 C 78.296875 -50.472656 78.296875 -47.898438 78.296875 -44.703125 L 78.296875 0 L 65.40625 0 L 65.40625 -43.796875 C 65.40625 -45.796875 65.40625 -47.695312 65.40625 -49.5 C 65.40625 -51.300781 65.300781 -53.203125 65.09375 -55.203125 C 64.695312 -59.898438 63.125 -63.773438 60.375 -66.828125 C 57.625 -69.878906 53.148438 -71.40625 46.953125 -71.40625 C 42.847656 -71.40625 39.046875 -70.253906 35.546875 -67.953125 C 32.046875 -65.648438 29.242188 -61.847656 27.140625 -56.546875 C 25.046875 -51.242188 24 -44.046875 24 -34.953125 L 24 0 L 11.09375 0 L 11.09375 -79.5 L 24 -79.5 L 24 -65.84375 L 28.953125 -75 C 32.347656 -77.601562 35.644531 -79.351562 38.84375 -80.25 C 42.050781 -81.144531 45.65625 -81.59375 49.65625 -81.59375 C 58.351562 -81.59375 65.097656 -79.46875 69.890625 -75.21875 C 74.691406 -70.96875 77.394531 -65.34375 78 -58.34375 Z M 78 -58.34375 "/></g></g></g><g fill="#ffffff" fill-opacity="1"><g transform="translate(479.16804, 632.71818)"><g><path d="M 68.40625 -36.59375 L 30.296875 -36.59375 L 18.15625 0 L 4.34375 0 L 41.546875 -103.5 L 58.953125 -103.5 L 94.65625 0 L 80.703125 0 Z M 33.90625 -47.09375 L 64.953125 -47.09375 L 49.953125 -93.296875 Z M 33.90625 -47.09375 "/></g></g></g><g fill="#ffffff" fill-opacity="1"><g transform="translate(575.018072, 632.71818)"><g><path d="M 27.90625 0 L 15 0 L 15 -103.5 L 27.90625 -103.5 Z M 27.90625 0 "/></g></g></g><g fill="#ffffff" fill-opacity="1"><g transform="translate(614.618061, 632.71818)"><g><path d="M 60.59375 -102.90625 C 68.894531 -101.90625 75.445312 -98.851562 80.25 -93.75 C 85.050781 -88.644531 87.453125 -81.695312 87.453125 -72.90625 C 87.453125 -67.101562 86.25 -62.078125 83.84375 -57.828125 C 81.445312 -53.578125 78.222656 -50.203125 74.171875 -47.703125 C 70.117188 -45.203125 65.59375 -43.601562 60.59375 -42.90625 C 58.300781 -42.601562 56.128906 -42.425781 54.078125 -42.375 C 52.023438 -42.320312 49.695312 -42.296875 47.09375 -42.296875 L 27.90625 -42.296875 L 27.90625 0 L 15 0 L 15 -103.5 L 47.09375 -103.5 C 49.695312 -103.5 52.023438 -103.472656 54.078125 -103.421875 C 56.128906 -103.367188 58.300781 -103.195312 60.59375 -102.90625 Z M 59.84375 -53.84375 C 63.550781 -54.644531 66.78125 -56.519531 69.53125 -59.46875 C 72.28125 -62.425781 73.65625 -66.90625 73.65625 -72.90625 C 73.65625 -78.90625 72.28125 -83.378906 69.53125 -86.328125 C 66.78125 -89.273438 63.550781 -91.148438 59.84375 -91.953125 C 58.445312 -92.253906 56.75 -92.453125 54.75 -92.546875 C 52.75 -92.648438 50.597656 -92.703125 48.296875 -92.703125 L 27.90625 -92.703125 L 27.90625 -53.09375 L 48.296875 -53.09375 C 50.597656 -53.09375 52.75 -53.144531 54.75 -53.25 C 56.75 -53.351562 58.445312 -53.550781 59.84375 -53.84375 Z M 59.84375 -53.84375 "/></g></g></g></svg>