<svg xmlns="http://www.w3.org/2000/svg" xmlns:xlink="http://www.w3.org/1999/xlink" width="1080" zoomAndPan="magnify" viewBox="0 0 810 809.999993" height="1080" preserveAspectRatio="xMidYMid meet" version="1.0"><defs><clipPath id="d4c944523d"><path d="M 76.648438 65.726562 L 743.828125 65.726562 L 743.828125 732.90625 L 76.648438 732.90625 Z M 76.648438 65.726562 " clip-rule="nonzero"/></clipPath><clipPath id="0f8b1688e7"><path d="M 410.238281 65.726562 C 226 65.726562 76.648438 215.078125 76.648438 399.316406 C 76.648438 583.550781 226 732.90625 410.238281 732.90625 C 594.472656 732.90625 743.828125 583.550781 743.828125 399.316406 C 743.828125 215.078125 594.472656 65.726562 410.238281 65.726562 Z M 410.238281 65.726562 " clip-rule="nonzero"/></clipPath><clipPath id="92a7fa9048"><path d="M 0.648438 0.726562 L 667.828125 0.726562 L 667.828125 667.90625 L 0.648438 667.90625 Z M 0.648438 0.726562 " clip-rule="nonzero"/></clipPath><clipPath id="28f4ff1195"><path d="M 334.238281 0.726562 C 150 0.726562 0.648438 150.078125 0.648438 334.316406 C 0.648438 518.550781 150 667.90625 334.238281 667.90625 C 518.472656 667.90625 667.828125 518.550781 667.828125 334.316406 C 667.828125 150.078125 518.472656 0.726562 334.238281 0.726562 Z M 334.238281 0.726562 " clip-rule="nonzero"/></clipPath><clipPath id="ea7d739571"><rect x="0" width="668" y="0" height="668"/></clipPath><clipPath id="4e9321367f"><path d="M 155 145 L 656 145 L 656 646 L 155 646 Z M 155 145 " clip-rule="nonzero"/></clipPath><clipPath id="a573f01eed"><path d="M 758.8125 394.363281 L 405.082031 748.09375 L 51.351562 394.363281 L 405.082031 40.632812 Z M 758.8125 394.363281 " clip-rule="nonzero"/></clipPath><clipPath id="aaf6a8d8a7"><path d="M 758.8125 394.363281 L 405.082031 748.09375 L 51.351562 394.363281 L 405.082031 40.632812 Z M 758.8125 394.363281 " clip-rule="nonzero"/></clipPath><clipPath id="917438e567"><path d="M 173 159 L 649 159 L 649 635 L 173 635 Z M 173 159 " clip-rule="nonzero"/></clipPath><clipPath id="1b07dc391b"><path d="M 746.523438 396.617188 L 410.292969 732.84375 L 74.066406 396.617188 L 410.292969 60.386719 Z M 746.523438 396.617188 " clip-rule="nonzero"/></clipPath><clipPath id="6aee7f10de"><path d="M 746.523438 396.617188 L 410.292969 732.84375 L 74.066406 396.617188 L 410.292969 60.386719 Z M 746.523438 396.617188 " clip-rule="nonzero"/></clipPath><clipPath id="5cef0fb328"><path d="M 229.203125 156.421875 L 356.875 156.421875 L 356.875 277.921875 L 229.203125 277.921875 Z M 229.203125 156.421875 " clip-rule="nonzero"/></clipPath><clipPath id="7cc686aebc"><path d="M 295.859375 156.421875 C 329.410156 156.421875 356.609375 183.621094 356.609375 217.171875 C 356.609375 250.722656 329.410156 277.921875 295.859375 277.921875 L 289.953125 277.921875 C 256.402344 277.921875 229.203125 250.722656 229.203125 217.171875 C 229.203125 183.621094 256.402344 156.421875 289.953125 156.421875 Z M 295.859375 156.421875 " clip-rule="nonzero"/></clipPath><clipPath id="7239b6d235"><path d="M 0.203125 0.421875 L 127.640625 0.421875 L 127.640625 121.921875 L 0.203125 121.921875 Z M 0.203125 0.421875 " clip-rule="nonzero"/></clipPath><clipPath id="3b3c0d4c5b"><path d="M 66.859375 0.421875 C 100.410156 0.421875 127.609375 27.621094 127.609375 61.171875 C 127.609375 94.722656 100.410156 121.921875 66.859375 121.921875 L 60.953125 121.921875 C 27.402344 121.921875 0.203125 94.722656 0.203125 61.171875 C 0.203125 27.621094 27.402344 0.421875 60.953125 0.421875 Z M 66.859375 0.421875 " clip-rule="nonzero"/></clipPath><clipPath id="7507e0b028"><rect x="0" width="128" y="0" height="122"/></clipPath><clipPath id="133d19e05b"><path d="M 256 351 L 402 351 L 402 454 L 256 454 Z M 256 351 " clip-rule="nonzero"/></clipPath><clipPath id="848c0d3568"><path d="M 379.0625 328.941406 L 401.921875 452.847656 L 278.753906 475.574219 L 255.890625 351.667969 Z M 379.0625 328.941406 " clip-rule="nonzero"/></clipPath><clipPath id="bf9d95d372"><path d="M 379.0625 328.941406 L 401.921875 452.847656 L 278.753906 475.574219 L 255.890625 351.667969 Z M 379.0625 328.941406 " clip-rule="nonzero"/></clipPath><clipPath id="ae7f450c41"><path d="M 256 424 L 402 424 L 402 527 L 256 527 Z M 256 424 " clip-rule="nonzero"/></clipPath><clipPath id="14a99082e6"><path d="M 379.0625 402.300781 L 401.921875 526.210938 L 278.753906 548.9375 L 255.890625 425.027344 Z M 379.0625 402.300781 " clip-rule="nonzero"/></clipPath><clipPath id="bfe129a90e"><path d="M 379.0625 402.300781 L 401.921875 526.210938 L 278.753906 548.9375 L 255.890625 425.027344 Z M 379.0625 402.300781 " clip-rule="nonzero"/></clipPath><clipPath id="5bafe34f45"><path d="M 287 501 L 400 501 L 400 580 L 287 580 Z M 287 501 " clip-rule="nonzero"/></clipPath><clipPath id="8337a1431e"><path d="M 381.828125 484.527344 L 399.382812 579.671875 L 304.976562 597.089844 L 287.421875 501.949219 Z M 381.828125 484.527344 " clip-rule="nonzero"/></clipPath><clipPath id="ef79feaa25"><path d="M 381.828125 484.527344 L 399.382812 579.671875 L 304.976562 597.089844 L 287.421875 501.949219 Z M 381.828125 484.527344 " clip-rule="nonzero"/></clipPath><clipPath id="02acd9ff97"><path d="M 415 329 L 550 329 L 550 465 L 415 465 Z M 415 329 " clip-rule="nonzero"/></clipPath><clipPath id="652185320d"><path d="M 415.1875 454.722656 L 424.835938 329.09375 L 549.71875 338.683594 L 540.070312 464.3125 Z M 415.1875 454.722656 " clip-rule="nonzero"/></clipPath><clipPath id="afe9641c78"><path d="M 0.199219 9 L 134.601562 9 L 134.601562 126 L 0.199219 126 Z M 0.199219 9 " clip-rule="nonzero"/></clipPath><clipPath id="501d5e6298"><path d="M 0.1875 125.722656 L 9.835938 0.09375 L 134.71875 9.683594 L 125.070312 135.3125 Z M 0.1875 125.722656 " clip-rule="nonzero"/></clipPath><clipPath id="7920fd28ac"><path d="M 9.847656 -0.0585938 L 0.199219 125.570312 L 125.082031 135.160156 L 134.730469 9.53125 Z M 9.847656 -0.0585938 " clip-rule="nonzero"/></clipPath><clipPath id="2524ca910f"><rect x="0" width="135" y="0" height="136"/></clipPath><clipPath id="8f7ccb36bf"><path d="M 415 402 L 550 402 L 550 538 L 415 538 Z M 415 402 " clip-rule="nonzero"/></clipPath><clipPath id="d24cdf20c1"><path d="M 415.1875 528.082031 L 424.835938 402.453125 L 549.71875 412.046875 L 540.070312 537.675781 Z M 415.1875 528.082031 " clip-rule="nonzero"/></clipPath><clipPath id="f9a38d6300"><path d="M 0.199219 9 L 134.601562 9 L 134.601562 127 L 0.199219 127 Z M 0.199219 9 " clip-rule="nonzero"/></clipPath><clipPath id="6bedff2a2a"><path d="M 0.1875 126.082031 L 9.835938 0.453125 L 134.71875 10.046875 L 125.070312 135.675781 Z M 0.1875 126.082031 " clip-rule="nonzero"/></clipPath><clipPath id="4493e8762a"><path d="M 9.847656 0.300781 L 0.199219 125.929688 L 125.082031 135.523438 L 134.730469 9.894531 Z M 9.847656 0.300781 " clip-rule="nonzero"/></clipPath><clipPath id="9d9dce1fb4"><rect x="0" width="135" y="0" height="136"/></clipPath><clipPath id="056cadcb07"><path d="M 339.710938 261.199219 L 427.460938 261.199219 L 427.460938 386.449219 L 339.710938 386.449219 Z M 339.710938 261.199219 " clip-rule="nonzero"/></clipPath><clipPath id="506a6cf4d6"><path d="M 472 283 L 502 283 L 502 343 L 472 343 Z M 472 283 " clip-rule="nonzero"/></clipPath><clipPath id="200ad74ab8"><path d="M 470.355469 339.582031 L 487.726562 281.769531 L 502.96875 286.347656 L 485.597656 344.160156 Z M 470.355469 339.582031 " clip-rule="nonzero"/></clipPath><clipPath id="db25736b2b"><path d="M 472.644531 331.960938 L 485.429688 289.402344 C 486.695312 285.191406 491.132812 282.804688 495.34375 284.070312 C 499.550781 285.335938 501.9375 289.773438 500.675781 293.980469 L 487.886719 336.539062 C 486.625 340.75 482.1875 343.136719 477.976562 341.871094 C 473.769531 340.605469 471.382812 336.167969 472.644531 331.960938 Z M 472.644531 331.960938 " clip-rule="nonzero"/></clipPath><clipPath id="04559da35e"><path d="M 0 0 L 30 0 L 30 60 L 0 60 Z M 0 0 " clip-rule="nonzero"/></clipPath><clipPath id="831809b9b1"><path d="M -1.644531 56.582031 L 15.726562 -1.230469 L 30.96875 3.347656 L 13.597656 61.160156 Z M -1.644531 56.582031 " clip-rule="nonzero"/></clipPath><clipPath id="0014e62733"><path d="M 0.644531 48.960938 L 13.429688 6.402344 C 14.695312 2.191406 19.132812 -0.195312 23.34375 1.070312 C 27.550781 2.335938 29.9375 6.773438 28.675781 10.980469 L 15.886719 53.539062 C 14.625 57.75 10.1875 60.136719 5.976562 58.871094 C 1.769531 57.605469 -0.617188 53.167969 0.644531 48.960938 Z M 0.644531 48.960938 " clip-rule="nonzero"/></clipPath><clipPath id="282df18b4e"><rect x="0" width="30" y="0" height="60"/></clipPath><clipPath id="1c44cc5cd0"><path d="M 467.953125 253.355469 L 524.808594 253.355469 L 524.808594 310.207031 L 467.953125 310.207031 Z M 467.953125 253.355469 " clip-rule="nonzero"/></clipPath><clipPath id="e33ce14a9b"><path d="M 496.378906 253.355469 C 480.679688 253.355469 467.953125 266.082031 467.953125 281.78125 C 467.953125 297.480469 480.679688 310.207031 496.378906 310.207031 C 512.082031 310.207031 524.808594 297.480469 524.808594 281.78125 C 524.808594 266.082031 512.082031 253.355469 496.378906 253.355469 Z M 496.378906 253.355469 " clip-rule="nonzero"/></clipPath><clipPath id="6d6f5f2b3f"><path d="M 0.953125 0.355469 L 57.808594 0.355469 L 57.808594 57.207031 L 0.953125 57.207031 Z M 0.953125 0.355469 " clip-rule="nonzero"/></clipPath><clipPath id="695eec2359"><path d="M 29.378906 0.355469 C 13.679688 0.355469 0.953125 13.082031 0.953125 28.78125 C 0.953125 44.480469 13.679688 57.207031 29.378906 57.207031 C 45.082031 57.207031 57.808594 44.480469 57.808594 28.78125 C 57.808594 13.082031 45.082031 0.355469 29.378906 0.355469 Z M 29.378906 0.355469 " clip-rule="nonzero"/></clipPath><clipPath id="1e71acfca3"><rect x="0" width="58" y="0" height="58"/></clipPath><clipPath id="846041a23d"><path d="M 477.058594 262.457031 L 515.703125 262.457031 L 515.703125 301.105469 L 477.058594 301.105469 Z M 477.058594 262.457031 " clip-rule="nonzero"/></clipPath><clipPath id="2f97f7727a"><path d="M 496.378906 262.457031 C 485.707031 262.457031 477.058594 271.109375 477.058594 281.78125 C 477.058594 292.453125 485.707031 301.105469 496.378906 301.105469 C 507.054688 301.105469 515.703125 292.453125 515.703125 281.78125 C 515.703125 271.109375 507.054688 262.457031 496.378906 262.457031 Z M 496.378906 262.457031 " clip-rule="nonzero"/></clipPath><clipPath id="a8dae6ad5d"><path d="M 0.0585938 0.457031 L 38.703125 0.457031 L 38.703125 39.105469 L 0.0585938 39.105469 Z M 0.0585938 0.457031 " clip-rule="nonzero"/></clipPath><clipPath id="318b87fcae"><path d="M 19.378906 0.457031 C 8.707031 0.457031 0.0585938 9.109375 0.0585938 19.78125 C 0.0585938 30.453125 8.707031 39.105469 19.378906 39.105469 C 30.054688 39.105469 38.703125 30.453125 38.703125 19.78125 C 38.703125 9.109375 30.054688 0.457031 19.378906 0.457031 Z M 19.378906 0.457031 " clip-rule="nonzero"/></clipPath><clipPath id="cb240273c7"><rect x="0" width="39" y="0" height="40"/></clipPath><clipPath id="a032b997ce"><path d="M 256.246094 176.304688 L 309.828125 176.304688 L 309.828125 229.886719 L 256.246094 229.886719 Z M 256.246094 176.304688 " clip-rule="nonzero"/></clipPath><clipPath id="01263f21e2"><path d="M 283.035156 176.304688 C 268.242188 176.304688 256.246094 188.300781 256.246094 203.097656 C 256.246094 217.894531 268.242188 229.886719 283.035156 229.886719 C 297.832031 229.886719 309.828125 217.894531 309.828125 203.097656 C 309.828125 188.300781 297.832031 176.304688 283.035156 176.304688 Z M 283.035156 176.304688 " clip-rule="nonzero"/></clipPath><clipPath id="1961441412"><path d="M 0.246094 0.304688 L 53.828125 0.304688 L 53.828125 53.886719 L 0.246094 53.886719 Z M 0.246094 0.304688 " clip-rule="nonzero"/></clipPath><clipPath id="13f73def0b"><path d="M 27.035156 0.304688 C 12.242188 0.304688 0.246094 12.300781 0.246094 27.097656 C 0.246094 41.894531 12.242188 53.886719 27.035156 53.886719 C 41.832031 53.886719 53.828125 41.894531 53.828125 27.097656 C 53.828125 12.300781 41.832031 0.304688 27.035156 0.304688 Z M 27.035156 0.304688 " clip-rule="nonzero"/></clipPath><clipPath id="bde555fee6"><rect x="0" width="54" y="0" height="54"/></clipPath><clipPath id="5b5d7cc328"><path d="M 393.675781 386.503906 L 410.234375 386.503906 L 410.234375 591.738281 L 393.675781 591.738281 Z M 393.675781 386.503906 " clip-rule="nonzero"/></clipPath><clipPath id="d2be995c80"><path d="M 0.675781 0.503906 L 17.234375 0.503906 L 17.234375 205.738281 L 0.675781 205.738281 Z M 0.675781 0.503906 " clip-rule="nonzero"/></clipPath><clipPath id="919af89fab"><rect x="0" width="18" y="0" height="206"/></clipPath><clipPath id="f5361dc4df"><path d="M 91 80 L 721 80 L 721 710 L 91 710 Z M 91 80 " clip-rule="nonzero"/></clipPath><clipPath id="00a6a3e3c6"><path d="M 850.082031 394.359375 L 405.136719 839.308594 L -39.8125 394.359375 L 405.136719 -50.585938 Z M 850.082031 394.359375 " clip-rule="nonzero"/></clipPath><clipPath id="1c955dc6f0"><path d="M 850.082031 394.359375 L 405.136719 839.308594 L -39.8125 394.359375 L 405.136719 -50.585938 Z M 850.082031 394.359375 " clip-rule="nonzero"/></clipPath><clipPath id="2da5ef6114"><path d="M 205 80 L 721 80 L 721 595 L 205 595 Z M 205 80 " clip-rule="nonzero"/></clipPath><clipPath id="209bd94d10"><path d="M 850.082031 394.359375 L 650.148438 594.292969 L 205.203125 149.347656 L 405.136719 -50.585938 Z M 850.082031 394.359375 " clip-rule="nonzero"/></clipPath><clipPath id="ce0c0db164"><path d="M 850.082031 394.359375 L 405.136719 839.308594 L -39.808594 394.359375 L 405.136719 -50.585938 Z M 850.082031 394.359375 " clip-rule="nonzero"/></clipPath><clipPath id="b383aeeb88"><path d="M 515.703125 492.042969 L 626 492.042969 L 626 597.164062 L 515.703125 597.164062 Z M 515.703125 492.042969 " clip-rule="nonzero"/></clipPath><clipPath id="6c9b7c7525"><path d="M 573.375 492.042969 C 602.40625 492.042969 625.9375 515.574219 625.9375 544.601562 C 625.9375 573.632812 602.40625 597.164062 573.375 597.164062 L 568.265625 597.164062 C 539.238281 597.164062 515.703125 573.632812 515.703125 544.601562 C 515.703125 515.574219 539.238281 492.042969 568.265625 492.042969 Z M 573.375 492.042969 " clip-rule="nonzero"/></clipPath><clipPath id="f9c4cf5000"><path d="M 0.703125 0.0429688 L 111 0.0429688 L 111 105.164062 L 0.703125 105.164062 Z M 0.703125 0.0429688 " clip-rule="nonzero"/></clipPath><clipPath id="51f1e73b72"><path d="M 58.375 0.0429688 C 87.40625 0.0429688 110.9375 23.574219 110.9375 52.601562 C 110.9375 81.632812 87.40625 105.164062 58.375 105.164062 L 53.265625 105.164062 C 24.238281 105.164062 0.703125 81.632812 0.703125 52.601562 C 0.703125 23.574219 24.238281 0.0429688 53.265625 0.0429688 Z M 58.375 0.0429688 " clip-rule="nonzero"/></clipPath><clipPath id="5be68ca443"><rect x="0" width="111" y="0" height="106"/></clipPath><clipPath id="313be1707a"><path d="M 558.558594 544.601562 L 654 544.601562 L 654 635.464844 L 558.558594 635.464844 Z M 558.558594 544.601562 " clip-rule="nonzero"/></clipPath><clipPath id="afd6fd3e21"><path d="M 608.40625 544.601562 C 633.496094 544.601562 653.835938 564.941406 653.835938 590.03125 C 653.835938 615.125 633.496094 635.464844 608.40625 635.464844 L 603.988281 635.464844 C 578.898438 635.464844 558.558594 615.125 558.558594 590.03125 C 558.558594 564.941406 578.898438 544.601562 603.988281 544.601562 Z M 608.40625 544.601562 " clip-rule="nonzero"/></clipPath><clipPath id="ec90d1ff7f"><path d="M 0.558594 0.601562 L 96 0.601562 L 96 91.464844 L 0.558594 91.464844 Z M 0.558594 0.601562 " clip-rule="nonzero"/></clipPath><clipPath id="6b57abbfd6"><path d="M 50.40625 0.601562 C 75.496094 0.601562 95.835938 20.941406 95.835938 46.03125 C 95.835938 71.125 75.496094 91.464844 50.40625 91.464844 L 45.988281 91.464844 C 20.898438 91.464844 0.558594 71.125 0.558594 46.03125 C 0.558594 20.941406 20.898438 0.601562 45.988281 0.601562 Z M 50.40625 0.601562 " clip-rule="nonzero"/></clipPath><clipPath id="22772d52b6"><rect x="0" width="96" y="0" height="92"/></clipPath></defs><g clip-path="url(#d4c944523d)"><g clip-path="url(#0f8b1688e7)"><g transform="matrix(1, 0, 0, 1, 76, 65)"><g clip-path="url(#ea7d739571)"><g clip-path="url(#92a7fa9048)"><g clip-path="url(#28f4ff1195)"><path fill="#ffffff" d="M 0.648438 0.726562 L 667.828125 0.726562 L 667.828125 667.90625 L 0.648438 667.90625 Z M 0.648438 0.726562 " fill-opacity="1" fill-rule="nonzero"/></g></g></g></g></g></g><g clip-path="url(#4e9321367f)"><g clip-path="url(#a573f01eed)"><g clip-path="url(#aaf6a8d8a7)"><path fill="#144679" d="M 558.046875 593.5625 L 542.371094 577.886719 C 452.980469 644.773438 325.453125 637.863281 244.246094 556.65625 C 155.175781 467.589844 155.183594 322.671875 244.246094 233.609375 C 333.304688 144.550781 478.222656 144.542969 567.292969 233.609375 C 648.5 314.816406 655.40625 442.34375 588.519531 531.734375 L 604.195312 547.410156 C 679.527344 449.390625 672.398438 307.949219 582.675781 218.226562 C 485.128906 120.683594 326.414062 120.675781 228.863281 218.226562 C 131.308594 315.78125 131.316406 474.496094 228.863281 572.039062 C 318.582031 661.761719 460.023438 668.890625 558.046875 593.5625 Z M 558.046875 593.5625 " fill-opacity="1" fill-rule="nonzero"/></g></g></g><g clip-path="url(#917438e567)"><g clip-path="url(#1b07dc391b)"><g clip-path="url(#6aee7f10de)"><path fill="#144679" d="M 555.703125 585.945312 L 540.804688 571.046875 C 455.839844 634.621094 334.628906 628.054688 257.445312 550.871094 C 172.789062 466.210938 172.796875 328.472656 257.445312 243.824219 C 342.09375 159.175781 479.832031 159.167969 564.488281 243.824219 C 641.675781 321.007812 648.238281 442.21875 584.667969 527.183594 L 599.566406 542.082031 C 671.167969 448.914062 664.390625 314.480469 579.109375 229.203125 C 486.398438 136.488281 335.542969 136.484375 242.824219 229.203125 C 150.105469 321.921875 150.109375 472.777344 242.824219 565.492188 C 328.101562 650.769531 462.535156 657.546875 555.703125 585.945312 Z M 555.703125 585.945312 " fill-opacity="1" fill-rule="nonzero"/></g></g></g><g clip-path="url(#5cef0fb328)"><g clip-path="url(#7cc686aebc)"><g transform="matrix(1, 0, 0, 1, 229, 156)"><g clip-path="url(#7507e0b028)"><g clip-path="url(#7239b6d235)"><g clip-path="url(#3b3c0d4c5b)"><path fill="#ffffff" d="M 0.203125 0.421875 L 127.398438 0.421875 L 127.398438 121.921875 L 0.203125 121.921875 Z M 0.203125 0.421875 " fill-opacity="1" fill-rule="nonzero"/></g></g></g></g></g></g><g clip-path="url(#133d19e05b)"><g clip-path="url(#848c0d3568)"><g clip-path="url(#bf9d95d372)"><path fill="#004aad" d="M 264.097656 393.707031 L 256.324219 351.585938 L 394.089844 410.90625 L 401.863281 453.027344 Z M 264.097656 393.707031 " fill-opacity="1" fill-rule="nonzero"/></g></g></g><g clip-path="url(#ae7f450c41)"><g clip-path="url(#14a99082e6)"><g clip-path="url(#bfe129a90e)"><path fill="#004aad" d="M 264.097656 467.070312 L 256.324219 424.949219 L 394.089844 484.265625 L 401.863281 526.390625 Z M 264.097656 467.070312 " fill-opacity="1" fill-rule="nonzero"/></g></g></g><g clip-path="url(#5bafe34f45)"><g clip-path="url(#8337a1431e)"><g clip-path="url(#ef79feaa25)"><path fill="#004aad" d="M 293.574219 534.25 L 287.609375 501.914062 L 393.367188 547.449219 L 399.332031 579.789062 Z M 293.574219 534.25 " fill-opacity="1" fill-rule="nonzero"/></g></g></g><g clip-path="url(#02acd9ff97)"><g clip-path="url(#652185320d)"><g transform="matrix(1, 0, 0, 1, 415, 329)"><g clip-path="url(#2524ca910f)"><g clip-path="url(#afe9641c78)"><g clip-path="url(#501d5e6298)"><g clip-path="url(#7920fd28ac)"><path fill="#004aad" d="M 131.011719 52.207031 L 134.289062 9.496094 L 3.558594 83.035156 L 0.28125 125.742188 Z M 131.011719 52.207031 " fill-opacity="1" fill-rule="nonzero"/></g></g></g></g></g></g></g><g clip-path="url(#8f7ccb36bf)"><g clip-path="url(#d24cdf20c1)"><g transform="matrix(1, 0, 0, 1, 415, 402)"><g clip-path="url(#9d9dce1fb4)"><g clip-path="url(#f9a38d6300)"><g clip-path="url(#6bedff2a2a)"><g clip-path="url(#4493e8762a)"><path fill="#004aad" d="M 131.011719 52.566406 L 134.289062 9.859375 L 3.558594 83.394531 L 0.28125 126.101562 Z M 131.011719 52.566406 " fill-opacity="1" fill-rule="nonzero"/></g></g></g></g></g></g></g><g clip-path="url(#056cadcb07)"><path fill="#004aad" d="M 383.5625 261.203125 C 359.347656 261.203125 339.710938 280.84375 339.710938 305.054688 C 339.710938 337.945312 383.5625 386.496094 383.5625 386.496094 C 383.5625 386.496094 427.414062 337.945312 427.414062 305.054688 C 427.414062 280.84375 407.773438 261.203125 383.5625 261.203125 Z M 383.5625 320.71875 C 374.917969 320.71875 367.902344 313.699219 367.902344 305.054688 C 367.902344 296.410156 374.917969 289.394531 383.5625 289.394531 C 392.207031 289.394531 399.222656 296.410156 399.222656 305.054688 C 399.222656 313.699219 392.207031 320.71875 383.5625 320.71875 Z M 383.5625 320.71875 " fill-opacity="1" fill-rule="nonzero"/></g><g clip-path="url(#506a6cf4d6)"><g clip-path="url(#200ad74ab8)"><g clip-path="url(#db25736b2b)"><g transform="matrix(1, 0, 0, 1, 472, 283)"><g clip-path="url(#282df18b4e)"><g clip-path="url(#04559da35e)"><g clip-path="url(#831809b9b1)"><g clip-path="url(#0014e62733)"><path fill="#004aad" d="M -1.644531 56.582031 L 15.726562 -1.230469 L 30.96875 3.347656 L 13.597656 61.160156 Z M -1.644531 56.582031 " fill-opacity="1" fill-rule="nonzero"/></g></g></g></g></g></g></g></g><g clip-path="url(#1c44cc5cd0)"><g clip-path="url(#e33ce14a9b)"><g transform="matrix(1, 0, 0, 1, 467, 253)"><g clip-path="url(#1e71acfca3)"><g clip-path="url(#6d6f5f2b3f)"><g clip-path="url(#695eec2359)"><path fill="#004aad" d="M 0.953125 0.355469 L 57.808594 0.355469 L 57.808594 57.207031 L 0.953125 57.207031 Z M 0.953125 0.355469 " fill-opacity="1" fill-rule="nonzero"/></g></g></g></g></g></g><g clip-path="url(#846041a23d)"><g clip-path="url(#2f97f7727a)"><g transform="matrix(1, 0, 0, 1, 477, 262)"><g clip-path="url(#cb240273c7)"><g clip-path="url(#a8dae6ad5d)"><g clip-path="url(#318b87fcae)"><path fill="#ffffff" d="M 0.0585938 0.457031 L 38.703125 0.457031 L 38.703125 39.105469 L 0.0585938 39.105469 Z M 0.0585938 0.457031 " fill-opacity="1" fill-rule="nonzero"/></g></g></g></g></g></g><g clip-path="url(#a032b997ce)"><g clip-path="url(#01263f21e2)"><g transform="matrix(1, 0, 0, 1, 256, 176)"><g clip-path="url(#bde555fee6)"><g clip-path="url(#1961441412)"><g clip-path="url(#13f73def0b)"><path fill="#004aad" d="M 0.246094 0.304688 L 53.828125 0.304688 L 53.828125 53.886719 L 0.246094 53.886719 Z M 0.246094 0.304688 " fill-opacity="1" fill-rule="nonzero"/></g></g></g></g></g></g><g clip-path="url(#5b5d7cc328)"><g transform="matrix(1, 0, 0, 1, 393, 386)"><g clip-path="url(#919af89fab)"><g clip-path="url(#d2be995c80)"><path fill="#ffffff" d="M 17.234375 0.503906 L 17.234375 205.761719 L 0.675781 205.761719 L 0.675781 0.503906 Z M 17.234375 0.503906 " fill-opacity="1" fill-rule="nonzero"/></g></g></g></g><g clip-path="url(#f5361dc4df)"><g clip-path="url(#00a6a3e3c6)"><g clip-path="url(#1c955dc6f0)"><path fill="#004aad" d="M 597.523438 644.945312 L 577.804688 625.226562 C 465.351562 709.367188 304.929688 700.679688 202.769531 598.519531 C 90.722656 486.472656 90.734375 304.171875 202.769531 192.136719 C 314.808594 80.097656 497.109375 80.089844 609.15625 192.136719 C 711.3125 294.292969 720 454.71875 635.859375 567.171875 L 655.578125 586.890625 C 750.34375 463.582031 741.375 285.652344 628.507812 172.785156 C 505.796875 50.074219 306.136719 50.066406 183.417969 172.785156 C 60.699219 295.503906 60.710938 495.164062 183.417969 617.871094 C 296.289062 730.742188 474.214844 739.710938 597.523438 644.945312 Z M 597.523438 644.945312 " fill-opacity="1" fill-rule="nonzero"/></g></g></g><g clip-path="url(#2da5ef6114)"><g clip-path="url(#209bd94d10)"><g clip-path="url(#ce0c0db164)"><path fill="#5fc4ed" d="M 597.523438 644.945312 L 577.804688 625.226562 C 465.351562 709.367188 304.929688 700.675781 202.769531 598.519531 C 90.726562 486.472656 90.734375 304.171875 202.769531 192.136719 C 314.808594 80.097656 497.109375 80.089844 609.15625 192.136719 C 711.3125 294.292969 720 454.71875 635.859375 567.171875 L 655.578125 586.890625 C 750.34375 463.582031 741.375 285.652344 628.507812 172.785156 C 505.796875 50.074219 306.136719 50.066406 183.417969 172.785156 C 60.699219 295.503906 60.710938 495.164062 183.417969 617.871094 C 296.289062 730.742188 474.214844 739.710938 597.523438 644.945312 Z M 597.523438 644.945312 " fill-opacity="1" fill-rule="nonzero"/></g></g></g><g clip-path="url(#b383aeeb88)"><g clip-path="url(#6c9b7c7525)"><g transform="matrix(1, 0, 0, 1, 515, 492)"><g clip-path="url(#5be68ca443)"><g clip-path="url(#f9c4cf5000)"><g clip-path="url(#51f1e73b72)"><path fill="#ffffff" d="M 0.703125 0.0429688 L 110.753906 0.0429688 L 110.753906 105.164062 L 0.703125 105.164062 Z M 0.703125 0.0429688 " fill-opacity="1" fill-rule="nonzero"/></g></g></g></g></g></g><g clip-path="url(#313be1707a)"><g clip-path="url(#afd6fd3e21)"><g transform="matrix(1, 0, 0, 1, 558, 544)"><g clip-path="url(#22772d52b6)"><g clip-path="url(#ec90d1ff7f)"><g clip-path="url(#6b57abbfd6)"><path fill="#ffffff" d="M 0.558594 0.601562 L 95.679688 0.601562 L 95.679688 91.464844 L 0.558594 91.464844 Z M 0.558594 0.601562 " fill-opacity="1" fill-rule="nonzero"/></g></g></g></g></g></g></svg>